<svg xmlns="http://www.w3.org/2000/svg" xmlns:xlink="http://www.w3.org/1999/xlink" viewBox="0 0 1500 1499.999933" preserveAspectRatio="xMidYMid meet"><defs><clipPath id="244a8ed840"><path d="M 231.121094 144.011719 L 1269 144.011719 L 1269 1356 L 231.121094 1356 Z M 231.121094 144.011719 " clip-rule="nonzero"></path></clipPath></defs><g clip-path="url(#244a8ed840)"><path fill="#0e2840" d="M 750.082031 143.945312 C 463.667969 143.945312 231.484375 186.039062 231.484375 237.957031 L 231.484375 320 C 231.484375 341.121094 269.886719 360.605469 334.722656 376.316406 C 326.699219 370.652344 322.410156 364.730469 322.410156 358.652344 C 322.410156 317.8125 513.882812 284.726562 750.082031 284.726562 C 986.28125 284.726562 1177.761719 317.8125 1177.761719 358.652344 C 1177.761719 364.730469 1173.464844 370.652344 1165.445312 376.316406 C 1230.28125 360.605469 1268.679688 341.121094 1268.679688 320 L 1268.679688 237.957031 C 1268.679688 186.039062 1036.488281 143.945312 750.082031 143.945312 Z M 750.082031 345.683594 C 538.269531 345.683594 366.5625 376.800781 366.5625 415.214844 L 366.5625 444.023438 C 368.878906 442.699219 371.40625 441.382812 374.128906 440.097656 C 402.742188 426.460938 435.773438 447.765625 435.773438 479.460938 L 435.773438 1110.9375 L 470.660156 1110.9375 L 470.660156 445.859375 C 470.660156 427.0625 484.453125 411.121094 503.0625 408.496094 C 503.355469 408.445312 503.648438 408.414062 503.941406 408.367188 C 532.070312 404.417969 557.226562 426.191406 557.226562 454.601562 L 557.226562 1234.257812 L 606.324219 1234.257812 L 606.324219 441.980469 C 606.324219 417.085938 625.839844 396.5 650.703125 395.34375 C 651.023438 395.332031 651.34375 395.3125 651.65625 395.296875 C 678.316406 394.089844 700.644531 415.246094 700.644531 441.9375 L 700.644531 1355.890625 L 804.003906 1355.890625 L 804.003906 442.164062 C 804.003906 415.515625 826.316406 394.242188 852.933594 395.515625 C 853.246094 395.535156 853.566406 395.546875 853.886719 395.566406 C 878.769531 396.765625 898.332031 417.289062 898.332031 442.21875 L 898.332031 1234.257812 L 947.429688 1234.257812 L 947.429688 455.234375 C 947.429688 426.761719 972.710938 404.953125 1000.902344 409.03125 C 1001.183594 409.066406 1001.46875 409.117188 1001.75 409.148438 C 1020.28125 411.859375 1033.984375 427.765625 1033.984375 446.5 L 1033.984375 1110.9375 L 1068.878906 1110.9375 L 1068.878906 481.820312 C 1068.878906 448.816406 1104.464844 427.511719 1133.179688 443.789062 L 1133.609375 444.023438 L 1133.609375 415.214844 C 1133.609375 376.800781 961.902344 345.683594 750.082031 345.683594 " fill-opacity="1" fill-rule="nonzero"></path></g></svg>