<svg xmlns="http://www.w3.org/2000/svg" xmlns:xlink="http://www.w3.org/1999/xlink" zoomAndPan="magnify" viewBox="0 0 1500 1499.999933" preserveAspectRatio="xMidYMid meet" version="1.0"><defs><clipPath id="cfd48a7bb7"><path d="M 140.367188 140.367188 L 1359.867188 140.367188 L 1359.867188 1359.867188 L 140.367188 1359.867188 Z M 140.367188 140.367188 " clip-rule="nonzero"/></clipPath></defs><g clip-path="url(#cfd48a7bb7)"><path fill="#0e2840" d="M 749.996094 1001.425781 C 611.128906 1001.425781 498.5625 888.859375 498.5625 749.996094 C 498.5625 611.128906 611.128906 498.5625 749.996094 498.5625 C 888.859375 498.5625 1001.425781 611.128906 1001.425781 749.996094 C 1001.425781 888.859375 888.859375 1001.425781 749.996094 1001.425781 Z M 1326.703125 632.445312 L 1214.136719 619.113281 C 1203.96875 582.949219 1189.542969 547.742188 1170.78125 514.300781 L 1240.917969 425.324219 C 1252.625 410.476562 1251.363281 389.21875 1237.996094 375.867188 L 1124.125 261.992188 C 1110.769531 248.625 1089.511719 247.367188 1074.664062 259.074219 L 985.691406 329.207031 C 952.246094 310.449219 917.027344 296.019531 880.875 285.851562 L 867.558594 173.273438 C 865.328125 154.503906 849.417969 140.367188 830.507812 140.367188 L 669.472656 140.367188 C 650.574219 140.367188 634.664062 154.503906 632.445312 173.273438 L 619.113281 285.851562 C 582.949219 296.019531 547.742188 310.449219 514.300781 329.207031 L 425.3125 259.074219 C 410.476562 247.367188 389.21875 248.625 375.855469 261.992188 L 261.992188 375.867188 C 248.625 389.21875 247.367188 410.476562 259.074219 425.324219 L 329.207031 514.300781 C 310.449219 547.742188 296.007812 582.949219 285.851562 619.113281 L 173.273438 632.445312 C 154.503906 634.664062 140.367188 650.574219 140.367188 669.472656 L 140.367188 830.507812 C 140.367188 849.417969 154.503906 865.328125 173.273438 867.558594 L 285.851562 880.875 C 296.007812 917.027344 310.449219 952.246094 329.207031 985.691406 L 259.074219 1074.664062 C 247.367188 1089.511719 248.625 1110.769531 261.992188 1124.125 L 375.855469 1237.996094 C 389.21875 1251.363281 410.476562 1252.625 425.3125 1240.917969 L 514.300781 1170.78125 C 547.742188 1189.542969 582.949219 1203.96875 619.113281 1214.136719 L 632.445312 1326.703125 C 634.664062 1345.484375 650.574219 1359.621094 669.472656 1359.621094 L 827.84375 1359.621094 C 846.40625 1359.621094 862.152344 1345.964844 864.765625 1327.566406 L 880.875 1214.136719 C 917.027344 1203.96875 952.246094 1189.542969 985.691406 1170.78125 L 1074.664062 1240.917969 C 1089.511719 1252.625 1110.769531 1251.363281 1124.125 1237.996094 L 1237.996094 1124.125 C 1251.363281 1110.769531 1252.625 1089.511719 1240.917969 1074.664062 L 1170.78125 985.691406 C 1189.542969 952.246094 1203.96875 917.027344 1214.136719 880.875 L 1326.703125 867.558594 C 1345.484375 865.328125 1359.621094 849.417969 1359.621094 830.507812 L 1359.621094 669.472656 C 1359.621094 650.574219 1345.484375 634.664062 1326.703125 632.445312 " fill-opacity="1" fill-rule="nonzero"/></g></svg>