<svg xmlns="http://www.w3.org/2000/svg" xmlns:xlink="http://www.w3.org/1999/xlink" viewBox="0 0 1500 1499.999933" preserveAspectRatio="xMidYMid meet"><defs><clipPath id="9e0dbcc971"><path d="M 229 75 L 1271 75 L 1271 1425 L 229 1425 Z M 229 75 " clip-rule="nonzero"/></clipPath></defs><g clip-path="url(#9e0dbcc971)"><path fill="#0e2840" d="M 236.4375 741.886719 L 262.257812 738.582031 C 418.417969 739.730469 542.351562 737.429688 633.972656 731.792969 C 729.433594 725.832031 810.167969 617.65625 841.59375 532.289062 C 844.070312 525.679688 845.222656 518.714844 845.398438 511.78125 C 846.402344 412.011719 836.3125 316.082031 932.09375 240.304688 C 995.949219 189.847656 1039.621094 166.859375 1033.011719 83.644531 C 1032.6875 78.511719 1037.144531 74.378906 1042.101562 75.03125 L 1046.558594 75.53125 C 1049.035156 75.855469 1051.011719 77.832031 1051.367188 80.164062 C 1068.894531 195.804688 992.644531 230.390625 926.132812 294.070312 C 920.5 299.527344 915.71875 305.988281 912.058594 312.925781 C 894.53125 347.332031 884.765625 392.152344 882.609375 447.246094 C 882.285156 454.535156 890.871094 458.664062 896.332031 453.855469 C 938.527344 416.144531 989.636719 383.714844 1049.683594 356.417969 C 1062.757812 350.3125 1085.597656 326.46875 1117.847656 284.625 C 1118.675781 283.800781 1119.175781 282.796875 1119.324219 281.644531 L 1132.574219 228.53125 C 1134.550781 220.59375 1145.96875 221.09375 1147.121094 229.179688 C 1168.632812 384.1875 996.070312 396.609375 913.683594 493.21875 C 904.238281 504.316406 893.5 526.976562 881.429688 561.53125 C 861.421875 617.949219 831.148438 666.402344 790.601562 706.769531 C 786.972656 710.398438 789.601562 716.539062 794.734375 716.359375 C 873.816406 714.058594 1010.113281 779.890625 1066.710938 706.089844 C 1129.238281 624.707031 1156.03125 578.054688 1262.734375 560.851562 C 1267.042969 560.203125 1270.847656 563.832031 1270.347656 568.140625 L 1269.699219 573.925781 C 1269.375 575.578125 1268.222656 577.082031 1266.539062 577.40625 C 1198.230469 596.4375 1147.59375 640.113281 1114.839844 708.421875 C 1114.335938 709.25 1114.839844 710.253906 1115.664062 710.398438 L 1263.886719 747.285156 C 1270.820312 748.9375 1272.972656 757.703125 1267.691406 762.660156 L 1262.054688 767.792969 C 1258.070312 769.445312 1253.617188 769.949219 1249.484375 769.121094 L 1127.054688 748.4375 C 1113.480469 746.105469 1099.582031 747.933594 1087.011719 753.570312 C 1041.1875 774.253906 998.519531 783.34375 958.976562 780.6875 C 955.671875 780.511719 953.519531 783.992188 955.171875 786.796875 C 995.035156 855.285156 1055.410156 923.449219 1143.609375 912.679688 C 1165.621094 910.023438 1182.472656 909.050781 1194.070312 909.699219 C 1200.175781 910.023438 1201.683594 918.640625 1195.898438 920.941406 C 1108.730469 957 1028.96875 936.492188 970.25 865.523438 C 908.546875 790.929688 853.78125 733.179688 749.410156 766.9375 C 742.949219 769.09375 742.296875 777.855469 748.40625 780.835938 C 819.226562 815.417969 867.855469 871.484375 894.472656 949.09375 C 914.480469 1007.8125 922.769531 1023.867188 977.035156 1047.679688 C 1060.070312 1084.417969 1125.757812 1109.054688 1147.59375 1192.269531 C 1148.417969 1195.25 1146.945312 1198.230469 1144.113281 1199.378906 C 1141.308594 1200.53125 1138.003906 1199.558594 1136.5 1196.902344 C 1085.714844 1109.703125 1004.332031 1095.660156 921.117188 1061.253906 C 916.664062 1059.421875 911.851562 1062.90625 912.5 1067.714844 C 919.9375 1129.417969 933.6875 1180.199219 953.371094 1220.242188 C 990.757812 1295.84375 1090.023438 1298.824219 1096.808594 1417.769531 C 1097.132812 1421.902344 1093.328125 1425.382812 1089.195312 1424.882812 L 1084.886719 1424.234375 C 1083.234375 1424.054688 1082.085938 1422.757812 1081.910156 1421.253906 C 1073.96875 1344.828125 1026.492188 1321.484375 963.964844 1278.492188 C 956.027344 1273.03125 949.0625 1266.421875 943.132812 1258.957031 C 914.183594 1222.398438 894 1177.070312 882.253906 1122.984375 C 869.683594 1063.9375 866.882812 990.640625 838.910156 934.722656 C 813.265625 883.9375 775.703125 845.398438 726.246094 819.253906 C 698.300781 804.53125 647.988281 796.769531 575.195312 795.945312 C 461.882812 794.941406 346.5625 794.617188 229.269531 794.792969 C 235.730469 780.246094 238.03125 762.542969 236.378906 741.855469 Z M 236.4375 741.886719 " fill-opacity="1" fill-rule="nonzero"/></g></svg>