<svg xmlns="http://www.w3.org/2000/svg" xmlns:xlink="http://www.w3.org/1999/xlink" zoomAndPan="magnify" viewBox="0 0 1500 1499.999933" preserveAspectRatio="xMidYMid meet" version="1.0"><defs><clipPath id="a78613b7d1"><path d="M 89 69 L 1399.769531 69 L 1399.769531 1401 L 89 1401 Z M 89 69 " clip-rule="nonzero"/></clipPath></defs><g clip-path="url(#a78613b7d1)"><path fill="#0e2840" d="M 589.195312 69.050781 C 564.644531 69.050781 544.707031 88.988281 544.707031 113.539062 C 544.707031 127.839844 551.683594 140.34375 562.175781 148.476562 L 562.175781 1070.445312 L 102.558594 1070.445312 C 102.558594 1070.445312 359.554688 1390.179688 555.371094 1399.882812 C 948.460938 1419.359375 1399.5625 1070.445312 1399.5625 1070.445312 L 617.328125 1070.445312 L 617.328125 147.628906 C 627.207031 139.476562 633.703125 127.324219 633.703125 113.511719 C 633.703125 88.960938 613.765625 69.023438 589.214844 69.023438 Z M 651.425781 137.015625 C 717.550781 475.855469 765.507812 800.171875 651.425781 994.851562 L 1303.46875 995.671875 C 1181.332031 709.46875 992.375 423.214844 651.425781 137.027344 Z M 529.421875 424.691406 C 467.832031 734.941406 250.335938 840.347656 89.167969 996.222656 L 529.421875 995.675781 Z M 529.421875 424.691406 " fill-opacity="1" fill-rule="nonzero"/></g></svg>