<svg xmlns="http://www.w3.org/2000/svg" xmlns:xlink="http://www.w3.org/1999/xlink" viewBox="0 0 1500 1499.999933" preserveAspectRatio="xMidYMid meet"><defs><clipPath id="81e585224e"><path d="M 318 252 L 1430.191406 252 L 1430.191406 897 L 318 897 Z M 318 252 " clip-rule="nonzero"></path></clipPath></defs><g clip-path="url(#81e585224e)"><path fill="#0e2840" d="M 1167.449219 278.570312 L 1217.011719 347.679688 C 1223.023438 356.074219 1221.144531 367.75 1212.777344 373.839844 L 960.25 557.308594 C 960.097656 557.433594 959.949219 557.53125 959.796875 557.632812 L 630.097656 797.179688 C 625.960938 800.160156 620.75 801.289062 615.914062 800.511719 C 610.925781 799.683594 606.492188 796.855469 603.609375 792.695312 L 508.09375 654.90625 L 318.910156 790.640625 C 318.910156 790.640625 318.910156 790.863281 318.910156 790.964844 C 318.9375 801.289062 319.964844 811.460938 321.441406 821.535156 C 321.816406 824.066406 322.21875 826.597656 322.695312 829.101562 C 324.574219 839.199219 326.929688 849.222656 330.285156 859.019531 C 330.285156 859.070312 330.335938 859.121094 330.335938 859.171875 L 477.597656 753.707031 C 480.804688 751.398438 484.640625 750.199219 488.546875 750.199219 C 489.625 750.199219 490.703125 750.273438 491.753906 750.472656 C 496.71875 751.324219 501.128906 754.132812 503.984375 758.289062 L 599.753906 896.554688 L 823.914062 733.632812 C 824.113281 733.484375 824.316406 733.335938 824.515625 733.207031 L 1249.210938 424.554688 C 1253.242188 421.621094 1258.230469 420.320312 1263.242188 421.222656 C 1268.175781 422.023438 1272.585938 424.753906 1275.519531 428.8125 L 1321.773438 493.210938 L 1430.523438 252.386719 L 1167.472656 278.570312 Z M 1167.449219 278.570312 " fill-opacity="1" fill-rule="nonzero"></path></g><path fill="#0e2840" d="M 327.730469 646.085938 C 350.734375 613.511719 381.679688 586.824219 417.210938 569.082031 C 451.261719 551.066406 489.449219 541.820312 530.269531 541.820312 C 619.648438 541.820312 701.609375 590.40625 745.710938 666.730469 L 781.367188 640.824219 C 728.921875 552.394531 634.507812 497.695312 530.367188 497.695312 C 482.484375 497.695312 437.757812 508.519531 397.414062 529.84375 C 355.195312 550.96875 318.835938 582.214844 291.949219 620.425781 C 258.699219 667.058594 239.980469 721.558594 237.726562 778.0625 C 237.222656 783.097656 237.25 786.832031 237.25 790.3125 C 237.25 833.460938 246.570312 875.40625 264.9375 915.074219 C 313.375 1017.582031 417.5625 1083.882812 530.34375 1083.882812 C 571.210938 1083.882812 610.5 1075.539062 647.183594 1059.050781 C 689.332031 1041.210938 725.613281 1014.125 755.433594 978.34375 C 771.21875 959.476562 793.144531 927.902344 808.027344 884.652344 C 813.414062 868.992188 822.433594 842.832031 822.9375 807.226562 C 823.0625 798.734375 822.5625 790.214844 821.707031 781.746094 L 778.058594 813.464844 C 773.574219 863.882812 754.304688 910.988281 721.65625 950.128906 C 696.347656 980.296875 664.550781 1004.050781 629.59375 1018.886719 C 598.800781 1032.71875 565.25 1039.78125 530.242188 1039.78125 C 434.398438 1039.78125 345.921875 983.53125 304.804688 896.429688 C 296.984375 879.644531 291.097656 862.351562 287.164062 844.636719 C 285.585938 837.519531 284.558594 830.304688 283.605469 823.0625 C 282.203125 812.3125 281.25 801.464844 281.25 790.488281 C 281.25 786.707031 281.25 782.898438 281.625 779.089844 C 283.40625 731.980469 299.339844 685.648438 327.707031 646.085938 Z M 327.730469 646.085938 " fill-opacity="1" fill-rule="nonzero"></path><path fill="#0e2840" d="M 123.664062 1020.214844 C 173.277344 1010.289062 224.09375 1025.726562 259.550781 1061.457031 C 295.433594 1097.089844 310.816406 1147.929688 300.667969 1197.417969 C 298.789062 1207.066406 303.199219 1216.660156 311.644531 1221.121094 C 334.269531 1232.449219 357.675781 1242.070312 380.753906 1249.535156 C 389.621094 1252.445312 398.96875 1249.863281 403.378906 1243.148438 C 431.191406 1199.671875 478.726562 1173.613281 530.394531 1173.613281 C 582.0625 1173.613281 629.59375 1199.671875 657.535156 1243.324219 C 661.742188 1249.761719 671.238281 1252.492188 679.933594 1249.585938 C 702.8125 1242.246094 725.640625 1232.875 749.84375 1220.894531 C 757.664062 1216.6875 761.972656 1207.039062 760.066406 1197.191406 C 749.894531 1147.804688 765.203125 1096.964844 801.085938 1061.355469 C 836.96875 1025.726562 887.785156 1010.289062 937.195312 1020.214844 C 946.820312 1022.09375 956.289062 1017.910156 960.375 1009.816406 C 972.300781 986.6875 981.773438 964.035156 989.417969 940.40625 C 992.347656 931.460938 989.589844 922.039062 982.699219 917.503906 C 939.425781 889.617188 913.46875 842.183594 913.46875 790.738281 C 913.46875 747.214844 932.109375 706.746094 963.957031 678.308594 L 855.761719 756.9375 C 858.867188 773.726562 860.796875 790.691406 860.546875 807.679688 C 859.996094 849.296875 849.320312 880.242188 843.582031 896.832031 C 826.84375 945.492188 802.140625 981.097656 784.324219 1002.398438 C 751.121094 1042.214844 708.902344 1073.710938 662.269531 1093.457031 C 621.074219 1111.949219 576.574219 1121.417969 530.367188 1121.417969 C 403.128906 1121.417969 285.558594 1046.671875 230.933594 930.933594 C 210.1875 886.183594 199.6875 838.875 199.6875 790.261719 C 199.6875 785.453125 199.738281 780.316406 200.289062 775.179688 C 202.722656 712.6875 223.820312 651.171875 261.304688 598.625 C 291.722656 555.453125 332.84375 520.070312 380.226562 496.367188 C 425.65625 472.363281 476.296875 460.058594 530.367188 460.058594 C 646.710938 460.058594 752.851562 520.148438 812.386719 618.222656 L 888.886719 562.644531 C 856.085938 558.609375 825.015625 544.125 800.988281 520.097656 C 765.179688 484.316406 749.894531 433.300781 760.066406 383.636719 C 761.921875 374.140625 757.738281 364.894531 749.621094 360.757812 C 726.367188 348.757812 703.664062 339.285156 680.085938 331.742188 C 672.367188 329.210938 662.292969 330.539062 657.457031 338.007812 C 629.570312 381.605469 582.035156 407.664062 530.367188 407.664062 C 478.699219 407.664062 431.167969 381.605469 403.230469 337.957031 C 398.96875 331.367188 389.824219 328.785156 380.777344 331.691406 C 356.847656 339.433594 333.542969 349.183594 311.519531 360.65625 C 303.023438 364.917969 298.789062 374.140625 300.667969 383.734375 C 310.769531 433.171875 295.382812 484.164062 259.476562 520.070312 C 224.421875 555.679688 173.578125 571.039062 123.566406 561.015625 C 113.917969 559.1875 104.398438 563.496094 99.910156 571.863281 C 88.511719 594.917969 79.0625 617.71875 71.296875 640.972656 C 68.539062 649.769531 71.296875 659.238281 78.0625 663.75 C 121.335938 691.414062 147.292969 738.945312 147.292969 790.738281 C 147.292969 842.53125 121.335938 889.789062 77.835938 917.628906 C 71.296875 921.964844 68.566406 931.460938 71.421875 940.558594 C 79.089844 963.484375 88.535156 986.285156 100.210938 1009.941406 C 104.421875 1017.734375 113.867188 1022.167969 123.664062 1020.164062 Z M 123.664062 1020.214844 " fill-opacity="1" fill-rule="nonzero"></path></svg>